<?xml version="1.0" encoding="utf-8"?>
<!-- Uploaded to: SVG Repo, www.svgrepo.com, Generator: SVG Repo Mixer Tools -->
<svg fill="currentColor" width="800px" height="800px" viewBox="0 0 32 32" version="1.1" xmlns="http://www.w3.org/2000/svg">
<title>target-arrows</title>
<path d="M31.034 25.541l-4.245-4.245h-4.351l-1.064-1.072c0.954-1.19 1.524-2.699 1.524-4.343 0-1.566-0.518-3.012-1.393-4.174l4.459-4.468c0.64 0.763 1.184 1.652 1.645 2.725l0 0c1.444-3.061 2.707-6.121 3.371-9.182-3.061 0.782-6.121 1.946-9.182 3.371 1.101 0.55 2.060 1.133 2.894 1.825l-4.442 4.445c-1.183-0.934-2.677-1.491-4.302-1.491s-3.12 0.558-4.303 1.492l-4.426-4.458c0.83-0.687 1.784-1.266 2.88-1.813-3.061-1.424-6.121-2.589-9.182-3.371 0.663 3.061 1.927 6.121 3.371 9.182l0-0c0.454-1.058 0.99-1.937 1.619-2.694l4.448 4.486c-0.852 1.154-1.356 2.58-1.356 4.125 0 1.626 0.559 3.122 1.495 4.306l-1.108 1.109h-4.278l-4.245 4.245h4.281l-0.677 0.678 1.296 1.264 0.614-0.615 0 4.186 4.245-4.245-0-4.195 1.165-1.167c1.16 0.869 2.601 1.384 4.163 1.384 1.523 0 2.931-0.49 4.077-1.321l1.251 1.261-0 4.038 4.245 4.245 0-4.001 1.254 1.265 1.333-1.309-1.457-1.468h4.382zM20.086 15.882c0 0.862-0.264 1.662-0.715 2.325l-2.17-2.185 2.283-2.288c0.381 0.626 0.601 1.362 0.601 2.149zM15.949 11.745c0.847 0 1.634 0.255 2.29 0.692l-2.305 2.307-2.284-2.301c0.658-0.441 1.449-0.698 2.3-0.698zM11.812 15.882c0-0.761 0.206-1.473 0.565-2.086l2.243 2.262-2.114 2.116c-0.438-0.656-0.693-1.444-0.693-2.292zM15.949 20.018c-0.784 0-1.517-0.218-2.141-0.597l2.080-2.085 2.116 2.134c-0.606 0.348-1.307 0.547-2.055 0.547z"></path>
</svg>